# xmcd
#
# Track frame offsets:
#  150
#  20590
#  37992
#  64725
#  82895
#  103045
#  120892
#  146027
#  163267
#  180097
#  200502
#  216282
#  233959
#  252995
#  270297
#  289262
#  308975
#
# Disc length: 4383 seconds
#
# Revision: 0
# Processed by: cddbd v1.4PL0 Copyright (c) Steve Scherf et al.
# Submitted via: AltoMP3_Maker 3.0
#
DISCID=eb111d11
DTITLE=Various Artist - Hip Hop Jam
DYEAR=1900
DGENRE=
TTITLE0=a tribe called quest, One, two shit
TTITLE1=walkin' large, Relaxation Zone
TTITLE2=the roots, Episodes
TTITLE3=mos def, If You can huh You can Hear
TTITLE4=boogiemonsters, Say Words
TTITLE5=bahamadia, I confess
TTITLE6=poor righteous teachers, My three wifes
TTITLE7=az, Hey AZ
TTITLE8=camp lo, Black Nostaljack
TTITLE9=x-ecutioner's, Musica Negra
TTITLE10=jay-z, D'Evils
TTITLE11=mcm, Who I am
TTITLE12=reflection eternal, 2000 Seasons
TTITLE13=keith murray, Manifique
TTITLE14=falcon and sleepy, Lifestress
TTITLE15=mellowbag, It's A long way to go
TTITLE16=prophets of rage, Goose Bumps
EXTD=
EXTT0=
EXTT1=
EXTT2=
EXTT3=
EXTT4=
EXTT5=
EXTT6=
EXTT7=
EXTT8=
EXTT9=
EXTT10=
EXTT11=
EXTT12=
EXTT13=
EXTT14=
EXTT15=
EXTT16=
PLAYORDER=
